<svg xmlns="http://www.w3.org/2000/svg" id="map" width="100%" preserveAspectRatio="xMidYMin slice" style="position:relative;width:100%;min-width:800px" viewBox="0 0 720 1000"><defs><pattern id="striped-room" width="4" height="4" x="15" y="4" patternTransform="rotate(-45)" patternUnits="userSpaceOnUse"><path d="M0 0h4v4H0z" style="fill:#ed913f"/><path d="M0 1h4" class="red"/></pattern><pattern id="striped-office" width="4" height="4" x="15" y="4" patternTransform="rotate(-45)" patternUnits="userSpaceOnUse"><path d="M0 0h4v4H0z" style="fill:#ffff7f"/><path d="M0 1h4" class="red"/></pattern><pattern id="striped-laboratory" width="4" height="4" x="15" y="4" patternTransform="rotate(-45)" patternUnits="userSpaceOnUse"><path d="M0 0h4v4H0z" style="fill:#80d3f0"/><path d="M0 1h4" class="red"/></pattern><pattern id="striped-lecture" width="4" height="4" x="15" y="4" patternTransform="rotate(-45)" patternUnits="userSpaceOnUse"><path d="M0 0h4v4H0z" style="fill:#80d3f0"/><path d="M0 1h4" class="red"/></pattern><pattern id="striped-study" width="4" height="4" x="15" y="4" patternTransform="rotate(-45)" patternUnits="userSpaceOnUse"><path d="M0 0h4v4H0z" style="fill:#80d3f0"/><path d="M0 1h4" class="red"/></pattern><pattern id="striped-library" width="4" height="4" x="15" y="4" patternTransform="rotate(-45)" patternUnits="userSpaceOnUse"><path d="M0 0h4v4H0z" style="fill:#80d3f0"/><path d="M0 1h4" class="red"/></pattern><pattern id="striped-common" width="4" height="4" x="15" y="4" patternTransform="rotate(-45)" patternUnits="userSpaceOnUse"><path d="M0 0h4v4H0z" style="fill:#ed913f"/><path d="M0 1h4" class="red"/></pattern><pattern id="striped-toilets" width="4" height="4" x="15" y="4" patternTransform="rotate(-45)" patternUnits="userSpaceOnUse"><path d="M0 0h4v4H0z" style="fill:#3fbf3f"/><path d="M0 1h4" class="red"/></pattern><pattern id="striped-cellar" width="4" height="4" x="15" y="4" patternTransform="rotate(-45)" patternUnits="userSpaceOnUse"><path d="M0 0h4v4H0z" style="fill:#ed913f"/><path d="M0 1h4" class="red"/></pattern><pattern id="striped-corridor" width="4" height="4" x="15" y="4" patternTransform="rotate(-45)" patternUnits="userSpaceOnUse"><path d="M0 0h4v4H0z" style="fill:#8d8d8d"/><path d="M0 1h4" class="red"/></pattern><pattern id="striped-stairs" width="4" height="4" x="15" y="4" patternTransform="rotate(-45)" patternUnits="userSpaceOnUse"><path d="M0 0h4v4H0z" style="fill:#4d4d4d"/><path d="M0 1h4" class="red"/></pattern><pattern id="striped-elevator" width="4" height="4" x="15" y="4" patternTransform="rotate(-45)" patternUnits="userSpaceOnUse"><path d="M0 0h4v4H0z" style="fill:#676767"/><path d="M0 1h4" class="red"/></pattern><pattern id="striped-su-duck" width="4" height="4" x="15" y="4" patternTransform="rotate(-45)" patternUnits="userSpaceOnUse"><path d="M0 0h4v4H0z" style="fill:#0a7dab"/><path d="M0 1h4" class="red"/></pattern></defs><style><![CDATA[text{font-family:Vafle,Open Sans,Arial,Helvetica,sans-serif;cursor:default;stroke:none}text.building{font-size:28px;fill:#00a9e0}text.main-entrance,text.street{font-size:15px;fill:gray}text.room-label{font-size:8px;fill:#000;font-family:Open Sans,Arial,Helvetica,sans-serif}circle.ap,text.ap{pointer-events:none}text.ap{font-size:8px;font-family:Open Sans,Arial,Helvetica,sans-serif;text-anchor:middle;stroke:none;cursor:default}text.ap-on{fill:red}circle.ap{stroke-width:1;fill:none}circle.ap-on{stroke:red}circle.ap-off{stroke:#000}circle.ap-in{stroke-opacity:.2}circle.ap-mid{stroke-opacity:.3}circle.ap-out{stroke-opacity:.4}polygon.building,rect.building{fill:#e8eaea;stroke:#e8eaea}.room,.water{stroke-width:1px}.room,line.door{vector-effect:non-scaling-stroke}.room{fill-opacity:1;fill:#ed913f;stroke:#000;stroke-opacity:1}.room.office{fill:#ffff7f}.room.laboratory,.room.lecture,.room.library,.room.study{fill:#80d3f0}.room.common{fill:#ed913f}.room.toilets{fill:#3fbf3f}.room.cellar{fill:#ed913f}.room.corridor{fill:#8d8d8d}.room.stairs{fill:#4d4d4d}.room.su-duck{fill:#0a7dab}line.door{stroke:#ffc0ff;stroke-width:3px}line.door.invisible{stroke:#a199a1}#arrow,line.door,line.red{pointer-events:none}line.red{stroke:#ff5757;stroke-width:2px;vector-effect:non-scaling-stroke}#arrow{fill:red;stroke:#fff;filter:drop-shadow(2px 5px 2px rgb(0 0 0/.6))}.water{stroke:#2b51b5;fill:#fff;fill-opacity:0}[data-show-accessibility] g:not([data-accessible])>.room{fill:url(#striped-room)!important}[data-show-accessibility] g:not([data-accessible])>.office{fill:url(#striped-office)!important}[data-show-accessibility] g:not([data-accessible])>.laboratory{fill:url(#striped-laboratory)!important}[data-show-accessibility] g:not([data-accessible])>.lecture{fill:url(#striped-lecture)!important}[data-show-accessibility] g:not([data-accessible])>.study{fill:url(#striped-study)!important}[data-show-accessibility] g:not([data-accessible])>.library{fill:url(#striped-library)!important}[data-show-accessibility] g:not([data-accessible])>.common{fill:url(#striped-common)!important}[data-show-accessibility] g:not([data-accessible])>.toilets{fill:url(#striped-toilets)!important}[data-show-accessibility] g:not([data-accessible])>.cellar{fill:url(#striped-cellar)!important}[data-show-accessibility] g:not([data-accessible])>.corridor{fill:url(#striped-corridor)!important}[data-show-accessibility] g:not([data-accessible])>.stairs{fill:url(#striped-stairs)!important}[data-show-accessibility] g:not([data-accessible])>.elevator{fill:url(#striped-elevator)!important}[data-show-accessibility] g:not([data-accessible])>.su-duck{fill:url(#striped-su-duck)!important}]]></style><g id="buildings" style="display:inline"><text id="text-a" x="463" y="492" class="building">A</text><text id="text-b" x="309" y="413" class="building">B</text><text id="text-c" x="479" y="351" class="building">C</text><text id="text-d" x="546" y="428" class="building">D</text><text id="text-e" x="586" y="147" class="building">E</text><text id="text-f" x="278" y="170" class="building">F</text><text id="text-g" x="220" y="163" class="building">G</text><text id="text-h" x="293" y="25" class="building">H</text><text id="text-i" x="66" y="150" class="building">I</text><text id="text-j" x="580" y="25" class="building">J</text><text id="text-l" x="446" y="731" class="building">L</text><text id="text-m" x="346" y="786" class="building">M</text><text id="text-n" x="222" y="786" class="building">N</text><text id="text-o" x="98" y="786" class="building">O</text><text id="text-p" x="140" y="906" class="building">P</text><text id="text-q" x="579" y="884" class="building">Q</text><text id="text-r" x="345" y="906" class="building">R</text><text id="text-s" x="594" y="750" class="building">S</text><path id="building-a" d="M305 519h61v27l-5 3-3 7 3 7 7 3 7-3 3-7h319v2l3 5 7 3 7-3 3-7-3-7-7-3-5 1v-17h18v-29H436l-16-17H305z" class="building"/><path id="building-b" d="M241 308v62h-61v44h61v105h64V308z" class="building"/><path id="building-c" d="M220 260v15h21v33h461v-62h1l7-3 3-7-3-7-7-3h-1v-31h-48v40H426v5h-90v24h-70v-4z" class="building"/><path id="building-d" d="M584 346v116h49v39h20v-39h66V346h-66v-38h-20v38z" class="building"/><path id="building-e" d="M498 235v-21h45v-37h21V80h-21V45H428v169h47v21z" class="building"/><path id="building-f" d="M336 221v-11h41v-40h-41v-21h41v-40h-41V90h41V45h-59v18h-46v66h46v92z" class="building"/><path id="building-g" d="M60 234h155v26h51v4h70v-43 19-19H232v-22h-19v-78h-46v78-78 100H60z" class="building"/><path id="building-h" d="M327 1h30v31h-30z" class="building"/><path id="building-i" d="M86 0v55H0v40h43v15H0v40h43v19H0v40h43v29H0v41h60V76h66V0z" class="building"/><path id="building-j" d="M600 1h119v39H600z" class="building"/><path id="building-bridge" d="M307 519h15l-40 88h-15z" class="building"/><path id="building-l" d="M30 607h542v73h-11v10H364v-12H30z" class="building"/><path id="building-m" d="M342 678v232H220v-15h106v-23h-47V716h47v-38z" class="building"/><path id="building-n" d="M279 746h-61v98h-15v28h-48V716h48v14h76z" class="building"/><path id="building-o" d="M155 746H95v98H78v28H31V716h47v14h77z" class="building"/><path id="building-p" d="M5 910h255v75H5z" class="building"/><path id="building-q" d="m684 985 28-75h-58v-45h15v-15h-15v-5h-17v50H438l-96-35v17l68 24v84z" class="building"/><path id="building-r" d="M260 910h150v75H260z" class="building"/><path id="building-s" d="M637 845h82V656h-82l-27-16-28 51 55 32z" class="building"/><text id="text41544" x="15" y="776" class="street" transform="rotate(-90 15 776)">Metodějova</text><text id="text41545" x="361" y="592" class="street">Božetěchova</text><text id="text41545a" x="30" y="705" class="street">vehicular entrance</text><text id="text41545b" x="30" y="900" class="street">entrance</text><text id="text41546" x="650" y="100" class="street">vehicular <tspan x="650" y="120">entrance</tspan><tspan x="650" y="140">Křižíkova</tspan></text><text id="text41547" x="655" y="880" class="street">entrance<tspan x="655" y="900">Kollárova</tspan></text></g><g id="rooms"><g data-planek-id="271" data-type="81" onclick="window.open('https://www.fit.vut.cz/fit/room/D006/.en', '_self');"><title>D006 Staircase</title><path id="D006" d="M623 346h22v24h-13v-14h-9z" class="room stairs"/></g><g data-planek-id="274" data-type="81" onclick="window.open('https://www.fit.vut.cz/fit/room/D008/.en', '_self');"><title>D008 Staircase</title><path id="D008" d="M633 450h12v12h-12z" class="room stairs"/></g><g data-planek-id="276" data-type="78" onclick="window.open('https://www.fit.vut.cz/fit/room/D0201/.en', '_self');"><title>D0201 Foyer</title><path id="D0201" d="M623 370h22v-24h15v116h-15v-32h-22z" class="room corridor"/><text id="text-D0201" x="625" y="378" class="room-label">Foyer</text></g><g data-planek-id="277" data-type="129" onclick="window.open('https://www.fit.vut.cz/fit/room/D0202/.en', '_self');"><title>D0202 Aircondition</title><path id="D0202" d="M584 346h39v116h-39z" class="room other"/><text id="text-D0202" x="586" y="354" class="room-label">D0202</text></g><g data-planek-id="278" data-type="51" onclick="window.open('https://www.fit.vut.cz/fit/room/D0203/.en', '_self');"><title>D0203 Technology Room</title><path id="D0203" d="M623 440h10v-10h12v20h-12v12h-10z" class="room other"/></g><g data-planek-id="280" data-type="87" onclick="window.open('https://www.fit.vut.cz/fit/room/D0205/.en', '_self');"><title>D0205 Elevator</title><path id="D0205" d="M623 430h10v10h-10z" style="fill:#676767"/><text id="text-D0205" x="625" y="438" class="room-label">V</text></g><g data-planek-id="281" data-type="70" onclick="window.open('https://www.fit.vut.cz/fit/room/D0206/.en', '_self');"><title>D0206 Lecture Room 154</title><path id="D0206" d="M660 385h59v77h-59z" class="room lecture"/><text id="text-D0206" x="662" y="393" class="room-label">D0206</text></g><g data-planek-id="282" data-type="70" onclick="window.open('https://www.fit.vut.cz/fit/room/D0207/.en', '_self');"><title>D0207 Lecture Room 90</title><path id="D0207" d="M660 346h59v39h-59z" class="room lecture"/><text id="text-D0207" x="662" y="354" class="room-label">D0207</text></g><g data-planek-id="285" data-type="112" onclick="window.open('https://www.fit.vut.cz/fit/room/D0209/.en', '_self');"><title>D0209 Cleaning Room</title><path id="D0209" d="M623 356h9v14h-9z" class="room other"/></g><g data-planek-id="863" data-type="81" onclick="window.open('https://www.fit.vut.cz/fit/room/Q0201/.en', '_self');"><title>Q0201 Staircase</title><path id="Q0201" d="M600 895h10v35h-10z" class="room stairs"/></g><g data-planek-id="864" data-type="17" onclick="window.open('https://www.fit.vut.cz/fit/room/Q0202/.en', '_self');"><title>Q0202 Cellar</title><path id="Q0202" d="M550 860h90v35h-90z" class="room cellar"/><text id="text-Q0202" x="552" y="868" class="room-label">Q0202</text></g><g data-planek-id="865" data-type="17" onclick="window.open('https://www.fit.vut.cz/fit/room/Q0203/.en', '_self');"><title>Q0203 Cellar</title><path id="Q0203" d="M450 860h100v35H450z" class="room cellar"/><text id="text-Q0203" x="452" y="868" class="room-label">Q0203</text></g><g data-planek-id="866" data-type="17" onclick="window.open('https://www.fit.vut.cz/fit/room/Q0204/.en', '_self');"><title>Q0204 Cellar</title><path id="Q0204" d="M400 855h50v35h-50z" class="room cellar"/><text id="text-Q0204" x="402" y="863" class="room-label">Q0204</text></g><g data-planek-id="867" data-type="79" onclick="window.open('https://www.fit.vut.cz/fit/room/Q0205/.en', '_self');"><title>Q0205 Corridor</title><path id="Q0205" d="M490 895h15v70h-15z" class="room corridor"/></g><g data-planek-id="869" data-type="81" onclick="window.open('https://www.fit.vut.cz/fit/room/Q0206/.en', '_self');"><title>Q0206 Staircase</title><path id="Q0206" d="M505 955h35v10h-35z" class="room stairs"/></g></g><g id="doors"><path d="M634.5 370h8M645 452v8M623 422v-8M623 378v8M645 436v8M624 430h8M660 454v-8M660 393v8M660 382v-8M623.5 370h8M601 895h8M550 873.5v8M550 873.5v8M450 858v29M493.5 895h8M505 956v8" class="door"/></g><g id="AP"><circle cx="699" cy="366" r="6" class="ap ap-in ap-on"/><circle cx="699" cy="366" r="9" class="ap ap-mid ap-on"/><circle cx="699" cy="366" r="12" class="ap ap-out ap-on"/><text x="699" y="369" class="ap ap-on">11</text><text x="699" y="359" class="ap ap-on">ac</text><text x="699" y="377" class="ap ap-on">n</text><circle cx="699" cy="408" r="6" class="ap ap-in ap-on"/><circle cx="699" cy="408" r="9" class="ap ap-mid ap-on"/><circle cx="699" cy="408" r="12" class="ap ap-out ap-on"/><text x="699" y="411" class="ap ap-on">1</text><text x="699" y="401" class="ap ap-on">ac</text><text x="699" y="419" class="ap ap-on">n</text><circle cx="699" cy="438" r="6" class="ap ap-in ap-on"/><circle cx="699" cy="438" r="9" class="ap ap-mid ap-on"/><circle cx="699" cy="438" r="12" class="ap ap-out ap-on"/><text x="699" y="441" class="ap ap-on">6</text><text x="699" y="431" class="ap ap-on">ac</text><text x="699" y="449" class="ap ap-on">n</text><circle cx="25" cy="538" r="6" class="ap ap-in ap-on"/><circle cx="25" cy="538" r="9" class="ap ap-mid ap-on"/><circle cx="25" cy="538" r="12" class="ap ap-out ap-on"/><text x="25" y="541" class="ap ap-on">X</text><text x="25" y="531" class="ap ap-on">ax</text><text x="25" y="549" class="ap ap-on">ax</text><text x="85" y="540" class="ap" style="fill:#000">WiFi AP on channel X</text></g></svg>