<svg xmlns="http://www.w3.org/2000/svg" id="map" width="100%" preserveAspectRatio="xMidYMin slice" style="position:relative;width:100%;min-width:800px" viewBox="0 0 720 1000"><defs><pattern id="striped-room" width="4" height="4" x="15" y="4" patternTransform="rotate(-45)" patternUnits="userSpaceOnUse"><path d="M0 0h4v4H0z" style="fill:#ed913f"/><path d="M0 1h4" class="red"/></pattern><pattern id="striped-office" width="4" height="4" x="15" y="4" patternTransform="rotate(-45)" patternUnits="userSpaceOnUse"><path d="M0 0h4v4H0z" style="fill:#ffff7f"/><path d="M0 1h4" class="red"/></pattern><pattern id="striped-laboratory" width="4" height="4" x="15" y="4" patternTransform="rotate(-45)" patternUnits="userSpaceOnUse"><path d="M0 0h4v4H0z" style="fill:#80d3f0"/><path d="M0 1h4" class="red"/></pattern><pattern id="striped-lecture" width="4" height="4" x="15" y="4" patternTransform="rotate(-45)" patternUnits="userSpaceOnUse"><path d="M0 0h4v4H0z" style="fill:#80d3f0"/><path d="M0 1h4" class="red"/></pattern><pattern id="striped-study" width="4" height="4" x="15" y="4" patternTransform="rotate(-45)" patternUnits="userSpaceOnUse"><path d="M0 0h4v4H0z" style="fill:#80d3f0"/><path d="M0 1h4" class="red"/></pattern><pattern id="striped-library" width="4" height="4" x="15" y="4" patternTransform="rotate(-45)" patternUnits="userSpaceOnUse"><path d="M0 0h4v4H0z" style="fill:#80d3f0"/><path d="M0 1h4" class="red"/></pattern><pattern id="striped-common" width="4" height="4" x="15" y="4" patternTransform="rotate(-45)" patternUnits="userSpaceOnUse"><path d="M0 0h4v4H0z" style="fill:#ed913f"/><path d="M0 1h4" class="red"/></pattern><pattern id="striped-toilets" width="4" height="4" x="15" y="4" patternTransform="rotate(-45)" patternUnits="userSpaceOnUse"><path d="M0 0h4v4H0z" style="fill:#3fbf3f"/><path d="M0 1h4" class="red"/></pattern><pattern id="striped-cellar" width="4" height="4" x="15" y="4" patternTransform="rotate(-45)" patternUnits="userSpaceOnUse"><path d="M0 0h4v4H0z" style="fill:#ed913f"/><path d="M0 1h4" class="red"/></pattern><pattern id="striped-corridor" width="4" height="4" x="15" y="4" patternTransform="rotate(-45)" patternUnits="userSpaceOnUse"><path d="M0 0h4v4H0z" style="fill:#8d8d8d"/><path d="M0 1h4" class="red"/></pattern><pattern id="striped-stairs" width="4" height="4" x="15" y="4" patternTransform="rotate(-45)" patternUnits="userSpaceOnUse"><path d="M0 0h4v4H0z" style="fill:#4d4d4d"/><path d="M0 1h4" class="red"/></pattern><pattern id="striped-elevator" width="4" height="4" x="15" y="4" patternTransform="rotate(-45)" patternUnits="userSpaceOnUse"><path d="M0 0h4v4H0z" style="fill:#676767"/><path d="M0 1h4" class="red"/></pattern><pattern id="striped-su-duck" width="4" height="4" x="15" y="4" patternTransform="rotate(-45)" patternUnits="userSpaceOnUse"><path d="M0 0h4v4H0z" style="fill:#0a7dab"/><path d="M0 1h4" class="red"/></pattern></defs><style><![CDATA[text{font-family:Vafle,Open Sans,Arial,Helvetica,sans-serif;cursor:default;stroke:none}text.building{font-size:28px;fill:#00a9e0}text.main-entrance,text.street{font-size:15px;fill:gray}text.room-label{font-size:8px;fill:#000;font-family:Open Sans,Arial,Helvetica,sans-serif}circle.ap,text.ap{pointer-events:none}text.ap{font-size:8px;font-family:Open Sans,Arial,Helvetica,sans-serif;text-anchor:middle;stroke:none;cursor:default}text.ap-on{fill:red}circle.ap{stroke-width:1;fill:none}circle.ap-on{stroke:red}circle.ap-off{stroke:#000}polygon.building,rect.building{fill:#e8eaea;stroke:#e8eaea}.room,.water{stroke-width:1px}.room,line.door{vector-effect:non-scaling-stroke}.room{fill-opacity:1;fill:#ed913f;stroke:#000;stroke-opacity:1}.room.office{fill:#ffff7f}.room.laboratory,.room.lecture,.room.library,.room.study{fill:#80d3f0}.room.common{fill:#ed913f}.room.toilets{fill:#3fbf3f}.room.cellar{fill:#ed913f}.room.corridor{fill:#8d8d8d}.room.stairs{fill:#4d4d4d}.room.elevator{fill:#676767}.room.su-duck{fill:#0a7dab}line.door{stroke:#ffc0ff;stroke-width:3px}#arrow,line.door,line.red{pointer-events:none}line.red{stroke:#ff5757;stroke-width:2px;vector-effect:non-scaling-stroke}#arrow{fill:red;stroke:#fff;filter:drop-shadow(2px 5px 2px rgb(0 0 0/.6))}.water{stroke:#2b51b5;fill:#fff;fill-opacity:0}[data-show-accessibility] g:not([data-accessible])>.room{fill:url(#striped-room)!important}[data-show-accessibility] g:not([data-accessible])>.office{fill:url(#striped-office)!important}[data-show-accessibility] g:not([data-accessible])>.laboratory{fill:url(#striped-laboratory)!important}[data-show-accessibility] g:not([data-accessible])>.lecture{fill:url(#striped-lecture)!important}[data-show-accessibility] g:not([data-accessible])>.study{fill:url(#striped-study)!important}[data-show-accessibility] g:not([data-accessible])>.library{fill:url(#striped-library)!important}[data-show-accessibility] g:not([data-accessible])>.common{fill:url(#striped-common)!important}[data-show-accessibility] g:not([data-accessible])>.toilets{fill:url(#striped-toilets)!important}[data-show-accessibility] g:not([data-accessible])>.cellar{fill:url(#striped-cellar)!important}[data-show-accessibility] g:not([data-accessible])>.corridor{fill:url(#striped-corridor)!important}[data-show-accessibility] g:not([data-accessible])>.stairs{fill:url(#striped-stairs)!important}[data-show-accessibility] g:not([data-accessible])>.elevator{fill:url(#striped-elevator)!important}[data-show-accessibility] g:not([data-accessible])>.su-duck{fill:url(#striped-su-duck)!important}]]></style><g id="buildings" style="display:inline"><text id="text-a" x="463" y="492" class="building">A</text><text id="text-b" x="309" y="413" class="building">B</text><text id="text-c" x="479" y="351" class="building">C</text><text id="text-d" x="546" y="428" class="building">D</text><text id="text-e" x="586" y="147" class="building">E</text><text id="text-f" x="278" y="170" class="building">F</text><text id="text-g" x="220" y="163" class="building">G</text><text id="text-h" x="293" y="25" class="building">H</text><text id="text-i" x="66" y="150" class="building">I</text><text id="text-j" x="580" y="25" class="building">J</text><text id="text-l" x="446" y="731" class="building">L</text><text id="text-m" x="346" y="786" class="building">M</text><text id="text-n" x="222" y="786" class="building">N</text><text id="text-o" x="98" y="786" class="building">O</text><text id="text-p" x="140" y="906" class="building">P</text><text id="text-q" x="579" y="884" class="building">Q</text><text id="text-r" x="345" y="906" class="building">R</text><text id="text-s" x="594" y="750" class="building">S</text><path id="building-a" d="M305 519h61v27l-5 3-3 7 3 7 7 3 7-3 3-7h319v2l3 5 7 3 7-3 3-7-3-7-7-3-5 1v-17h18v-29H436l-16-17H305z" class="building"/><path id="building-b" d="M241 308v62h-61v44h61v105h64V308z" class="building"/><path id="building-c" d="M220 260v15h21v33h461v-62h1l7-3 3-7-3-7-7-3h-1v-31h-48v40H426v5h-90v24h-70v-4z" class="building"/><path id="building-d" d="M584 346v116h49v39h20v-39h66V346h-66v-38h-20v38z" class="building"/><path id="building-e" d="M498 235v-21h45v-37h21V80h-21V45H428v169h47v21z" class="building"/><path id="building-f" d="M336 221v-11h41v-40h-41v-21h41v-40h-41V90h41V45h-59v18h-46v66h46v92z" class="building"/><path id="building-g" d="M60 234h155v26h51v4h70v-43 19-19H232v-22h-19v-78h-46v78-78 100H60z" class="building"/><path id="building-h" d="M327 1h30v31h-30z" class="building"/><path id="building-i" d="M86 0v55H0v40h43v15H0v40h43v19H0v40h43v29H0v41h60V76h66V0z" class="building"/><path id="building-j" d="M600 1h119v39H600z" class="building"/><path id="building-bridge" d="M307 519h15l-40 88h-15z" class="building"/><path id="building-l" d="M30 607h542v73h-11v10H364v-12H30z" class="building"/><path id="building-m" d="M342 678v232H220v-15h106v-23h-47V716h47v-38z" class="building"/><path id="building-n" d="M279 746h-61v98h-15v28h-48V716h48v14h76z" class="building"/><path id="building-o" d="M155 746H95v98H78v28H31V716h47v14h77z" class="building"/><path id="building-p" d="M5 910h255v75H5z" class="building"/><path id="building-q" d="m684 985 28-75h-58v-45h15v-15h-15v-5h-17v50H438l-96-35v17l68 24v84z" class="building"/><path id="building-r" d="M260 910h150v75H260z" class="building"/><path id="building-s" d="M637 845h82V656h-82l-27-16-28 51 55 32z" class="building"/><text id="text41544" x="15" y="776" class="street" transform="rotate(-90 15 776)">Metodějova</text><text id="text41545" x="361" y="592" class="street">Božetěchova</text><text id="text41545a" x="30" y="705" class="street">vehicular entrance</text><text id="text41545b" x="30" y="900" class="street">entrance</text><text id="text41546" x="650" y="100" class="street">vehicular <tspan x="650" y="120">entrance</tspan><tspan x="650" y="140">Křižíkova</tspan></text><text id="text41547" x="655" y="880" class="street">entrance<tspan x="655" y="900">Kollárova</tspan></text></g><g id="rooms"><g data-planek-id="660" data-type="81" onclick="window.open('https://www.fit.vut.cz/fit/room/L401/.en', '_self');"><title>L401 Staircase</title><path id="L401" d="M284 607h44v15h-44z" class="room stairs"/></g><g data-planek-id="661" data-type="79" onclick="window.open('https://www.fit.vut.cz/fit/room/L402/.en', '_self');"><title>L402 Corridor</title><path id="L402" d="M316 622h12v13h-12z" class="room corridor"/></g><g data-planek-id="662" data-type="129" onclick="window.open('https://www.fit.vut.cz/fit/room/L403/.en', '_self');"><title>L403 Elevator Engine</title><path id="L403" d="M284 622h32v13h-32z" class="room other"/><text id="text-L403" x="286" y="630" class="room-label">L403</text></g><g data-planek-id="663" data-type="126" onclick="window.open('https://www.fit.vut.cz/fit/room/L404/.en', '_self');"><title>L404 Aircondition</title><path id="L404" d="M284 635h44v43h-44z" class="room other"/><text id="text-L404" x="286" y="643" class="room-label">L404</text></g><g data-planek-id="927" data-type="81" onclick="window.open('https://www.fit.vut.cz/fit/room/Q320/.en', '_self');"><title>Q320 Staircase</title><path id="Q320" d="M410 935h13v30h-13z" class="room stairs"/></g><g data-planek-id="933" data-type="81" onclick="window.open('https://www.fit.vut.cz/fit/room/Q326/.en', '_self');"><title>Q326 Staircase</title><path id="Q326" d="M611 935h10v30h-10z" class="room stairs"/></g><g data-planek-id="943" data-type="8" onclick="window.open('https://www.fit.vut.cz/fit/room/Q402/.en', '_self');"><title>Q402 Corridor</title><path id="Q402" d="M410 965h13v10h-13z" class="room corridor"/></g><g data-planek-id="944" data-type="126" onclick="window.open('https://www.fit.vut.cz/fit/room/Q403/.en', '_self');"><title>Q403 Air Conditioning and Cooling Engine Room</title><path id="Q403" d="M423 910h157v65H423z" class="room other"/><text id="text-Q403" x="425" y="918" class="room-label">Q403</text></g><g data-planek-id="994" data-type="81" onclick="window.open('https://www.fit.vut.cz/fit/room/R401/.en', '_self');"><title>R401 Staircase</title><path id="R401" d="M390 940h20v45h-20z" class="room stairs"/></g><g data-planek-id="995" data-type="126" onclick="window.open('https://www.fit.vut.cz/fit/room/R402/.en', '_self');"><title>R402 Air Conditioning</title><path id="R402" d="M340 960h50v25h-50z" class="room other"/><text id="text-R402" x="342" y="968" class="room-label">R402</text></g><g data-planek-id="996" data-type="20" onclick="window.open('https://www.fit.vut.cz/fit/room/R404/.en', '_self');"><title>R404 Storage Room</title><path id="R404" d="M390 910h20v30h-20z" class="room other"/><text id="text-R404" x="392" y="918" class="room-label">R404</text></g><g data-planek-id="997" data-type="79" onclick="window.open('https://www.fit.vut.cz/fit/room/R405/.en', '_self');"><title>R405 Corridor</title><path id="R405" d="M285 945h10v10h-10z" class="room corridor"/></g><g data-planek-id="998" data-type="8" onclick="window.open('https://www.fit.vut.cz/fit/room/R406/.en', '_self');"><title>R406 Entry</title><path id="R406" d="M275 945h10v10h-10z" class="room corridor"/></g><g data-planek-id="999" data-type="160" onclick="window.open('https://www.fit.vut.cz/fit/room/R406.1/.en', '_self');"><title>R406.1 Room</title><path id="R406.1" d="M260 955h25v30h-25z" class="room other"/><text id="text-R406.1" x="262" y="963" class="room-label">P</text></g><g data-planek-id="1000" data-type="27" onclick="window.open('https://www.fit.vut.cz/fit/room/R406.2/.en', '_self');"><title>R406.2 Bathroom</title><path id="R406.2" d="M260 945h15v10h-15z" class="room toilets"/></g><g data-planek-id="1001" data-type="81" onclick="window.open('https://www.fit.vut.cz/fit/room/R407/.en', '_self');"><title>R407 Staircase</title><path id="R407" d="M285 955h10v30h-10z" class="room stairs"/></g><g data-planek-id="1002" data-type="8" onclick="window.open('https://www.fit.vut.cz/fit/room/R408/.en', '_self');"><title>R408 Entry</title><path id="R408" d="M295 945h20v20h-20z" class="room corridor"/></g><g data-planek-id="1003" data-type="27" onclick="window.open('https://www.fit.vut.cz/fit/room/R408.1/.en', '_self');"><title>R408.1 Room</title><path id="R408.1" d="M295 965h20v20h-20z" class="room toilets"/><text id="text-R408.1" x="297" y="973" class="room-label">P</text></g><g data-planek-id="1004" data-type="160" onclick="window.open('https://www.fit.vut.cz/fit/room/R408.2/.en', '_self');"><title>R408.2 Room</title><path id="R408.2" d="M315 955h15v5h10v25h-25z" class="room other"/><text id="text-R408.2" x="317" y="963" class="room-label">P</text></g><g data-planek-id="1005" data-type="27" onclick="window.open('https://www.fit.vut.cz/fit/room/R408.3/.en', '_self');"><title>R408.3 Bathroom</title><path id="R408.3" d="M315 945h15v10h-15z" class="room toilets"/></g><g data-planek-id="1006" data-type="8" onclick="window.open('https://www.fit.vut.cz/fit/room/R409/.en', '_self');"><title>R409 Entry</title><path id="R409" d="M290 935h25v10h-25z" class="room corridor"/></g><g data-planek-id="1007" data-type="160" onclick="window.open('https://www.fit.vut.cz/fit/room/R409.1/.en', '_self');"><title>R409.1 Room</title><path id="R409.1" d="M285 910h22v25h-22z" class="room other"/><text id="text-R409.1" x="287" y="918" class="room-label">P</text></g><g data-planek-id="1008" data-type="160" onclick="window.open('https://www.fit.vut.cz/fit/room/R409.2/.en', '_self');"><title>R409.2 Room</title><path id="R409.2" d="M307 910h23v25h-23z" class="room other"/><text id="text-R409.2" x="309" y="918" class="room-label">P</text></g><g data-planek-id="1009" data-type="27" onclick="window.open('https://www.fit.vut.cz/fit/room/R409.3/.en', '_self');"><title>R409.3 Bathroom</title><path id="R409.3" d="M315 935h15v10h-15z" class="room toilets"/></g><g data-planek-id="1010" data-type="8" onclick="window.open('https://www.fit.vut.cz/fit/room/R410/.en', '_self');"><title>R410 Entry</title><path id="R410" d="M275 935h15v10h-15z" class="room corridor"/></g><g data-planek-id="1011" data-type="160" onclick="window.open('https://www.fit.vut.cz/fit/room/R410.1/.en', '_self');"><title>R410.1 Room</title><path id="R410.1" d="M260 910h25v25h-25z" class="room other"/><text id="text-R410.1" x="262" y="918" class="room-label">P</text></g><g data-planek-id="1012" data-type="27" onclick="window.open('https://www.fit.vut.cz/fit/room/R410.2/.en', '_self');"><title>R410.2 Bathroom</title><path id="R410.2" d="M260 935h15v10h-15z" class="room toilets"/></g></g><g id="doors"><path d="M318 622h8M318 635h8M316 625v8M412.5 965h8M612 935h8M423 966v8M396 940h8M390 963v8" class="door"/><path d="M286 945h8" style="stroke:#a199a1"/><path d="M295 946v8M285 946v8M276 955h8M275 946v8M286 955h8M301 965h8M315 958v8M315 946v8M304 935h-8M310 935h8M315 936v8M275 936v8M282 935h-8" class="door"/></g><g id="AP"><circle cx="25" cy="538" r="6" class="ap ap-on" style="stroke-opacity:.2"/><circle cx="25" cy="538" r="9" class="ap ap-on" style="stroke-opacity:.3"/><circle cx="25" cy="538" r="12" class="ap ap-on" style="stroke-opacity:.4"/><text x="25" y="541" class="ap ap-on">X</text><text x="25" y="531" class="ap ap-on">ax</text><text x="25" y="549" class="ap ap-on">ax</text><text x="85" y="540" class="ap" style="fill:#000">WiFi AP on channel X</text></g></svg>